<mxfile host="app.diagrams.net" agent="Mozilla/5.0 (Windows NT 10.0; Win64; x64) AppleWebKit/537.36 (KHTML, like Gecko) Chrome/131.0.0.0 Safari/537.36" version="26.0.2">
  <diagram id="C5RBs43oDa-KdzZeNtuy" name="Page-1">
    <mxGraphModel dx="1307" dy="1070" grid="1" gridSize="10" guides="1" tooltips="1" connect="1" arrows="1" fold="1" page="1" pageScale="1" pageWidth="827" pageHeight="1169" math="0" shadow="0">
      <root>
        <mxCell id="WIyWlLk6GJQsqaUBKTNV-0" />
        <mxCell id="WIyWlLk6GJQsqaUBKTNV-1" parent="WIyWlLk6GJQsqaUBKTNV-0" />
        <mxCell id="n8qMs5hg-vV5P2_N1nDD-44" value="" style="group" vertex="1" connectable="0" parent="WIyWlLk6GJQsqaUBKTNV-1">
          <mxGeometry x="20" y="20" width="230" height="200" as="geometry" />
        </mxCell>
        <mxCell id="n8qMs5hg-vV5P2_N1nDD-0" value="作業フォルダ" style="rounded=1;whiteSpace=wrap;html=1;verticalAlign=top;fontColor=default;labelBackgroundColor=none;" vertex="1" parent="n8qMs5hg-vV5P2_N1nDD-44">
          <mxGeometry y="40" width="230" height="160" as="geometry" />
        </mxCell>
        <mxCell id="n8qMs5hg-vV5P2_N1nDD-24" value="" style="ellipse;whiteSpace=wrap;html=1;" vertex="1" parent="n8qMs5hg-vV5P2_N1nDD-44">
          <mxGeometry x="123" y="120" width="90" height="30" as="geometry" />
        </mxCell>
        <mxCell id="n8qMs5hg-vV5P2_N1nDD-23" value="" style="ellipse;whiteSpace=wrap;html=1;" vertex="1" parent="n8qMs5hg-vV5P2_N1nDD-44">
          <mxGeometry x="117" y="119" width="90" height="30" as="geometry" />
        </mxCell>
        <mxCell id="n8qMs5hg-vV5P2_N1nDD-22" value="" style="ellipse;whiteSpace=wrap;html=1;" vertex="1" parent="n8qMs5hg-vV5P2_N1nDD-44">
          <mxGeometry x="111" y="118" width="90" height="30" as="geometry" />
        </mxCell>
        <mxCell id="n8qMs5hg-vV5P2_N1nDD-21" value="" style="ellipse;whiteSpace=wrap;html=1;" vertex="1" parent="n8qMs5hg-vV5P2_N1nDD-44">
          <mxGeometry x="104" y="117" width="90" height="30" as="geometry" />
        </mxCell>
        <mxCell id="n8qMs5hg-vV5P2_N1nDD-20" value="" style="ellipse;whiteSpace=wrap;html=1;" vertex="1" parent="n8qMs5hg-vV5P2_N1nDD-44">
          <mxGeometry x="97" y="116" width="90" height="30" as="geometry" />
        </mxCell>
        <mxCell id="n8qMs5hg-vV5P2_N1nDD-18" value="" style="ellipse;whiteSpace=wrap;html=1;" vertex="1" parent="n8qMs5hg-vV5P2_N1nDD-44">
          <mxGeometry x="97" y="81" width="90" height="30" as="geometry" />
        </mxCell>
        <mxCell id="n8qMs5hg-vV5P2_N1nDD-2" value="バージョン: &lt;font style=&quot;color: rgb(255, 0, 0);&quot;&gt;2&lt;/font&gt;" style="ellipse;whiteSpace=wrap;html=1;" vertex="1" parent="n8qMs5hg-vV5P2_N1nDD-44">
          <mxGeometry x="90" y="80" width="90" height="30" as="geometry" />
        </mxCell>
        <mxCell id="n8qMs5hg-vV5P2_N1nDD-3" value="ファイルA" style="text;html=1;align=center;verticalAlign=middle;whiteSpace=wrap;rounded=0;" vertex="1" parent="n8qMs5hg-vV5P2_N1nDD-44">
          <mxGeometry x="14" y="80" width="60" height="30" as="geometry" />
        </mxCell>
        <mxCell id="n8qMs5hg-vV5P2_N1nDD-5" value="バージョン: &lt;font color=&quot;#ff0000&quot;&gt;6&lt;/font&gt;" style="ellipse;whiteSpace=wrap;html=1;" vertex="1" parent="n8qMs5hg-vV5P2_N1nDD-44">
          <mxGeometry x="90" y="115" width="90" height="30" as="geometry" />
        </mxCell>
        <mxCell id="n8qMs5hg-vV5P2_N1nDD-6" value="ファイルB" style="text;html=1;align=center;verticalAlign=middle;whiteSpace=wrap;rounded=0;" vertex="1" parent="n8qMs5hg-vV5P2_N1nDD-44">
          <mxGeometry x="14" y="115" width="60" height="30" as="geometry" />
        </mxCell>
        <mxCell id="n8qMs5hg-vV5P2_N1nDD-7" value="バージョン: &lt;font style=&quot;color: rgb(255, 0, 0);&quot;&gt;1&lt;/font&gt;" style="ellipse;whiteSpace=wrap;html=1;" vertex="1" parent="n8qMs5hg-vV5P2_N1nDD-44">
          <mxGeometry x="90" y="150" width="90" height="30" as="geometry" />
        </mxCell>
        <mxCell id="n8qMs5hg-vV5P2_N1nDD-8" value="ファイルC" style="text;html=1;align=center;verticalAlign=middle;whiteSpace=wrap;rounded=0;" vertex="1" parent="n8qMs5hg-vV5P2_N1nDD-44">
          <mxGeometry x="14" y="150" width="60" height="30" as="geometry" />
        </mxCell>
        <mxCell id="n8qMs5hg-vV5P2_N1nDD-43" value="1. ファイルごとのバージョン管理" style="text;html=1;align=center;verticalAlign=middle;whiteSpace=wrap;rounded=0;" vertex="1" parent="n8qMs5hg-vV5P2_N1nDD-44">
          <mxGeometry x="13" width="200" height="30" as="geometry" />
        </mxCell>
        <mxCell id="n8qMs5hg-vV5P2_N1nDD-46" value="" style="group" vertex="1" connectable="0" parent="WIyWlLk6GJQsqaUBKTNV-1">
          <mxGeometry x="310" y="20" width="297" height="245" as="geometry" />
        </mxCell>
        <mxCell id="n8qMs5hg-vV5P2_N1nDD-31" value="" style="group" vertex="1" connectable="0" parent="n8qMs5hg-vV5P2_N1nDD-46">
          <mxGeometry x="61" y="60" width="236" height="185" as="geometry" />
        </mxCell>
        <mxCell id="n8qMs5hg-vV5P2_N1nDD-36" value="" style="group" vertex="1" connectable="0" parent="n8qMs5hg-vV5P2_N1nDD-31">
          <mxGeometry x="46" y="25" width="190" height="160" as="geometry" />
        </mxCell>
        <mxCell id="n8qMs5hg-vV5P2_N1nDD-42" value="" style="group" vertex="1" connectable="0" parent="n8qMs5hg-vV5P2_N1nDD-36">
          <mxGeometry x="10" width="150" height="160" as="geometry" />
        </mxCell>
        <mxCell id="n8qMs5hg-vV5P2_N1nDD-37" value="作業フォルダ&lt;br&gt;バージョン: &lt;font color=&quot;#ff0000&quot;&gt;1&lt;/font&gt;" style="rounded=1;whiteSpace=wrap;html=1;verticalAlign=top;" vertex="1" parent="n8qMs5hg-vV5P2_N1nDD-42">
          <mxGeometry width="150" height="160" as="geometry" />
        </mxCell>
        <mxCell id="n8qMs5hg-vV5P2_N1nDD-38" value="ファイルA" style="ellipse;whiteSpace=wrap;html=1;" vertex="1" parent="n8qMs5hg-vV5P2_N1nDD-42">
          <mxGeometry x="30" y="45" width="90" height="30" as="geometry" />
        </mxCell>
        <mxCell id="n8qMs5hg-vV5P2_N1nDD-39" value="ファイルB" style="ellipse;whiteSpace=wrap;html=1;" vertex="1" parent="n8qMs5hg-vV5P2_N1nDD-42">
          <mxGeometry x="30" y="80" width="90" height="30" as="geometry" />
        </mxCell>
        <mxCell id="n8qMs5hg-vV5P2_N1nDD-41" value="" style="group" vertex="1" connectable="0" parent="n8qMs5hg-vV5P2_N1nDD-31">
          <mxGeometry width="170" height="160" as="geometry" />
        </mxCell>
        <mxCell id="n8qMs5hg-vV5P2_N1nDD-32" value="作業フォルダ&lt;br&gt;バージョン: &lt;font color=&quot;#ff0000&quot;&gt;2&lt;/font&gt;" style="rounded=1;whiteSpace=wrap;html=1;verticalAlign=top;" vertex="1" parent="n8qMs5hg-vV5P2_N1nDD-41">
          <mxGeometry width="150" height="160" as="geometry" />
        </mxCell>
        <mxCell id="n8qMs5hg-vV5P2_N1nDD-33" value="ファイルA" style="ellipse;whiteSpace=wrap;html=1;" vertex="1" parent="n8qMs5hg-vV5P2_N1nDD-41">
          <mxGeometry x="30" y="45" width="90" height="30" as="geometry" />
        </mxCell>
        <mxCell id="n8qMs5hg-vV5P2_N1nDD-34" value="ファイル&lt;font style=&quot;color: rgb(255, 0, 0);&quot;&gt;B&#39;&lt;/font&gt;" style="ellipse;whiteSpace=wrap;html=1;" vertex="1" parent="n8qMs5hg-vV5P2_N1nDD-41">
          <mxGeometry x="30" y="80" width="90" height="30" as="geometry" />
        </mxCell>
        <mxCell id="n8qMs5hg-vV5P2_N1nDD-35" value="ファイルC" style="ellipse;whiteSpace=wrap;html=1;" vertex="1" parent="n8qMs5hg-vV5P2_N1nDD-41">
          <mxGeometry x="30" y="116" width="90" height="30" as="geometry" />
        </mxCell>
        <mxCell id="n8qMs5hg-vV5P2_N1nDD-10" value="" style="group" vertex="1" connectable="0" parent="n8qMs5hg-vV5P2_N1nDD-46">
          <mxGeometry y="40" width="190" height="160" as="geometry" />
        </mxCell>
        <mxCell id="n8qMs5hg-vV5P2_N1nDD-11" value="作業フォルダ&lt;br&gt;バージョン: &lt;font style=&quot;color: rgb(255, 0, 0);&quot;&gt;3&lt;/font&gt;" style="rounded=1;whiteSpace=wrap;html=1;verticalAlign=top;" vertex="1" parent="n8qMs5hg-vV5P2_N1nDD-10">
          <mxGeometry width="150" height="160" as="geometry" />
        </mxCell>
        <mxCell id="n8qMs5hg-vV5P2_N1nDD-26" value="ファイルA" style="ellipse;whiteSpace=wrap;html=1;" vertex="1" parent="n8qMs5hg-vV5P2_N1nDD-10">
          <mxGeometry x="30" y="45" width="90" height="30" as="geometry" />
        </mxCell>
        <mxCell id="n8qMs5hg-vV5P2_N1nDD-28" value="ファイル&lt;font style=&quot;color: rgb(255, 0, 0);&quot;&gt;B&#39;&#39;&lt;/font&gt;" style="ellipse;whiteSpace=wrap;html=1;" vertex="1" parent="n8qMs5hg-vV5P2_N1nDD-10">
          <mxGeometry x="30" y="80" width="90" height="30" as="geometry" />
        </mxCell>
        <mxCell id="n8qMs5hg-vV5P2_N1nDD-30" value="ファイルC" style="ellipse;whiteSpace=wrap;html=1;" vertex="1" parent="n8qMs5hg-vV5P2_N1nDD-10">
          <mxGeometry x="30" y="116" width="90" height="30" as="geometry" />
        </mxCell>
        <mxCell id="n8qMs5hg-vV5P2_N1nDD-45" value="2. 作業フォルダ全体をまとめてバージョン管理" style="text;html=1;align=center;verticalAlign=middle;whiteSpace=wrap;rounded=0;" vertex="1" parent="n8qMs5hg-vV5P2_N1nDD-46">
          <mxGeometry x="10" width="260" height="30" as="geometry" />
        </mxCell>
      </root>
    </mxGraphModel>
  </diagram>
</mxfile>
